<svg width="26" height="29" viewBox="0 0 26 29" fill="none" xmlns="http://www.w3.org/2000/svg">
<path d="M9.35513 0.829877C9.44669 0.891514 9.52655 0.972826 9.59015 1.06917C9.65376 1.16551 9.69985 1.27499 9.72581 1.39137C9.75176 1.50774 9.75707 1.62872 9.74142 1.7474C9.72578 1.86608 9.68949 1.98013 9.63462 2.08304L5.49738 9.834H20.5026L16.3638 2.08304C16.253 1.87519 16.2202 1.6264 16.2726 1.39138C16.325 1.15637 16.4584 0.95439 16.6432 0.829877C16.8281 0.705364 17.0495 0.668516 17.2585 0.727441C17.4676 0.786365 17.6472 0.936235 17.758 1.14408L22.3974 9.834H24.375C24.806 9.834 25.2193 10.0265 25.524 10.3691C25.8288 10.7116 26 11.1763 26 11.6608V13.4875C26 13.972 25.8288 14.4367 25.524 14.7793C25.2193 15.1218 24.806 15.3143 24.375 15.3143V23.5347C24.375 24.746 23.947 25.9076 23.1851 26.764C22.4233 27.6205 21.3899 28.1017 20.3125 28.1017H5.6875C4.61006 28.1017 3.57675 27.6205 2.81488 26.764C2.05301 25.9076 1.625 24.746 1.625 23.5347V15.3143C1.19402 15.3143 0.780698 15.1218 0.475951 14.7793C0.171205 14.4367 0 13.972 0 13.4875V11.6608C0 11.1763 0.171205 10.7116 0.475951 10.3691C0.780698 10.0265 1.19402 9.834 1.625 9.834H3.60262L8.23875 1.14408C8.29358 1.04115 8.36591 0.95137 8.45161 0.879871C8.53731 0.808371 8.6347 0.756553 8.73822 0.727375C8.84174 0.698197 8.94936 0.692231 9.05493 0.709819C9.1605 0.727406 9.26196 0.768203 9.3535 0.829877H9.35513ZM3.25 15.3143V23.5347C3.25 24.2615 3.50681 24.9584 3.96393 25.4723C4.42105 25.9862 5.04103 26.2749 5.6875 26.2749H20.3125C20.959 26.2749 21.579 25.9862 22.0361 25.4723C22.4932 24.9584 22.75 24.2615 22.75 23.5347V15.3143H3.25ZM1.625 11.6608V13.4875H24.375V11.6608H1.625ZM6.5 17.1411C6.71549 17.1411 6.92215 17.2373 7.07452 17.4086C7.2269 17.5799 7.3125 17.8122 7.3125 18.0544V23.5347C7.3125 23.777 7.2269 24.0093 7.07452 24.1806C6.92215 24.3519 6.71549 24.4481 6.5 24.4481C6.28451 24.4481 6.07785 24.3519 5.92548 24.1806C5.7731 24.0093 5.6875 23.777 5.6875 23.5347V18.0544C5.6875 17.8122 5.7731 17.5799 5.92548 17.4086C6.07785 17.2373 6.28451 17.1411 6.5 17.1411ZM9.75 17.1411C9.96549 17.1411 10.1722 17.2373 10.3245 17.4086C10.4769 17.5799 10.5625 17.8122 10.5625 18.0544V23.5347C10.5625 23.777 10.4769 24.0093 10.3245 24.1806C10.1722 24.3519 9.96549 24.4481 9.75 24.4481C9.53451 24.4481 9.32785 24.3519 9.17548 24.1806C9.0231 24.0093 8.9375 23.777 8.9375 23.5347V18.0544C8.9375 17.8122 9.0231 17.5799 9.17548 17.4086C9.32785 17.2373 9.53451 17.1411 9.75 17.1411ZM13 17.1411C13.2155 17.1411 13.4222 17.2373 13.5745 17.4086C13.7269 17.5799 13.8125 17.8122 13.8125 18.0544V23.5347C13.8125 23.777 13.7269 24.0093 13.5745 24.1806C13.4222 24.3519 13.2155 24.4481 13 24.4481C12.7845 24.4481 12.5778 24.3519 12.4255 24.1806C12.2731 24.0093 12.1875 23.777 12.1875 23.5347V18.0544C12.1875 17.8122 12.2731 17.5799 12.4255 17.4086C12.5778 17.2373 12.7845 17.1411 13 17.1411ZM16.25 17.1411C16.4655 17.1411 16.6722 17.2373 16.8245 17.4086C16.9769 17.5799 17.0625 17.8122 17.0625 18.0544V23.5347C17.0625 23.777 16.9769 24.0093 16.8245 24.1806C16.6722 24.3519 16.4655 24.4481 16.25 24.4481C16.0345 24.4481 15.8278 24.3519 15.6755 24.1806C15.5231 24.0093 15.4375 23.777 15.4375 23.5347V18.0544C15.4375 17.8122 15.5231 17.5799 15.6755 17.4086C15.8278 17.2373 16.0345 17.1411 16.25 17.1411ZM19.5 17.1411C19.7155 17.1411 19.9222 17.2373 20.0745 17.4086C20.2269 17.5799 20.3125 17.8122 20.3125 18.0544V23.5347C20.3125 23.777 20.2269 24.0093 20.0745 24.1806C19.9222 24.3519 19.7155 24.4481 19.5 24.4481C19.2845 24.4481 19.0778 24.3519 18.9255 24.1806C18.7731 24.0093 18.6875 23.777 18.6875 23.5347V18.0544C18.6875 17.8122 18.7731 17.5799 18.9255 17.4086C19.0778 17.2373 19.2845 17.1411 19.5 17.1411Z" fill="white"/>
</svg>
