<svg width="26" height="26" viewBox="0 0 26 26" fill="none" xmlns="http://www.w3.org/2000/svg">
<path d="M15.1991 13.0002L24.5444 3.65458C25.1526 3.04669 25.1526 2.06381 24.5444 1.45592C23.9365 0.848027 22.9536 0.848027 22.3457 1.45592L13.0001 10.8015L3.6548 1.45592C3.04662 0.848027 2.06403 0.848027 1.45613 1.45592C0.847956 2.06381 0.847956 3.04669 1.45613 3.65458L10.8015 13.0002L1.45613 22.3458C0.847956 22.9537 0.847956 23.9365 1.45613 24.5444C1.75908 24.8477 2.15742 25 2.55547 25C2.95351 25 3.35156 24.8477 3.6548 24.5444L13.0001 15.1988L22.3457 24.5444C22.649 24.8477 23.047 25 23.4451 25C23.8431 25 24.2412 24.8477 24.5444 24.5444C25.1526 23.9365 25.1526 22.9537 24.5444 22.3458L15.1991 13.0002Z" fill="#6A6E71" stroke="#6A6E71"/>
</svg>
