<svg width="29" height="29" viewBox="0 0 29 29" fill="none" xmlns="http://www.w3.org/2000/svg">
<path d="M19.8835 0H9.02415C4.02734 0 0 4.04522 0 9.04039V19.8969C0 24.8924 4.02734 29 9.02415 29H19.8835C24.8804 29 29 24.8924 29 19.8969V9.04039C29 4.04522 24.8804 0 19.8835 0ZM26.2677 19.8969C26.2677 23.3887 23.3762 26.2559 19.8835 26.2559H9.02415C5.53118 26.2559 2.67024 23.3887 2.67024 19.8969V9.04039C2.67024 5.54885 5.53118 2.68172 9.02415 2.68172H19.8835C23.3762 2.68172 26.2677 5.54885 26.2677 9.04039V19.8969Z" fill="#87C232"/>
<path d="M14.4539 7.23116C10.4558 7.23116 7.21436 10.4717 7.21436 14.469C7.21436 18.4657 10.4558 21.7062 14.4539 21.7062C18.452 21.7062 21.6933 18.4657 21.6933 14.469C21.6933 10.4717 18.452 7.23116 14.4539 7.23116ZM14.4539 18.9923C11.9597 18.9923 9.92936 16.9622 9.92936 14.469C9.92936 11.9734 11.9597 9.94537 14.4539 9.94537C16.9479 9.94537 18.9784 11.9734 18.9784 14.469C18.9784 16.9622 16.9479 18.9923 14.4539 18.9923Z" fill="#87C232"/>
<path d="M22.2364 5.72377C21.7035 5.72377 21.2715 6.15559 21.2715 6.68813C21.2715 7.22073 21.7035 7.65274 22.2364 7.65274C22.7687 7.65274 23.2009 7.22073 23.2009 6.68813C23.2009 6.15559 22.7687 5.72377 22.2364 5.72377Z" fill="#87C232"/>
</svg>
