<svg width="20" height="20" viewBox="0 0 20 20" fill="none" xmlns="http://www.w3.org/2000/svg">
<path fill-rule="evenodd" clip-rule="evenodd" d="M19.5105 17.1469L15.1656 12.8021C15.1425 12.779 15.1154 12.7628 15.0913 12.7413C15.9462 11.4445 16.4452 9.8921 16.4452 8.22267C16.4452 3.68139 12.7638 0 8.22259 0C3.68139 0 0 3.68139 0 8.22259C0 12.7637 3.68131 16.4452 8.22251 16.4452C9.89202 16.4452 11.4443 15.9462 12.7412 15.0913C12.7627 15.1153 12.7787 15.1424 12.8018 15.1655L17.1468 19.5105C17.7995 20.1631 18.8577 20.1631 19.5105 19.5105C20.1631 18.8577 20.1631 17.7996 19.5105 17.1469ZM8.22259 13.5947C5.25558 13.5947 2.85043 11.1895 2.85043 8.22259C2.85043 5.25558 5.25566 2.85043 8.22259 2.85043C11.1894 2.85043 13.5947 5.25566 13.5947 8.22259C13.5947 11.1895 11.1894 13.5947 8.22259 13.5947Z" fill="#618930"/>
</svg>
