<svg width="29" height="29" viewBox="0 0 29 29" fill="none" xmlns="http://www.w3.org/2000/svg">
<path fill-rule="evenodd" clip-rule="evenodd" d="M2.03854 2.03854C0 4.07707 0 7.35803 0 13.92V15.08C0 21.642 0 24.9229 2.03854 26.9615C4.07707 29 7.35803 29 13.92 29H15.08C21.642 29 24.9229 29 26.9615 26.9615C29 24.9229 29 21.642 29 15.08V13.92C29 7.35803 29 4.07707 26.9615 2.03854C24.9229 0 21.642 0 15.08 0H13.92C7.35803 0 4.07707 0 2.03854 2.03854ZM4.89382 8.82089C5.05091 16.3609 8.82089 20.8921 15.4305 20.8921H15.8051V16.5784C18.2339 16.8201 20.0704 18.5963 20.8075 20.8921H24.2392C23.2967 17.4605 20.8195 15.5634 19.2729 14.8384C20.8195 13.9442 22.9945 11.7692 23.5141 8.82089H20.3965C19.7199 11.2134 17.7143 13.3884 15.8051 13.5938V8.82089H12.6875V17.1826C10.7542 16.6992 8.31339 14.3551 8.20464 8.82089H4.89382Z" fill="#87C232"/>
</svg>
